# xmcd
#
# Track frame offsets:
#	150
#	18883
#	31720
#	50068
#	68621
#	84116
#	103306
#	113815
#	144118
#	159739
#	181263
#	182913
#
# Disc length: 2876 seconds
#
# Revision: 0
# Processed by: cddbd v1.4PL0 Copyright (c) Steve Scherf et al.
# Submitted via: dBpowerAMP V4.0
#
DISCID=910b3a0c
DTITLE=Jon Koonce - Mysterious Ways
DYEAR=1900
DGENRE=Country
TTITLE0=Mysterious Ways
TTITLE1=Amsterdam
TTITLE2=Borderline
TTITLE3=One Foot In The Honky Tonk
TTITLE4=Walking In The Light
TTITLE5=Train Fair Home
TTITLE6=Bad Dog
TTITLE7=Don't Take Your Guns To Town
TTITLE8=Good Boy Now
TTITLE9=Spanish Eyes
TTITLE10=Unknown
TTITLE11=Ain't Living Long Like This
EXTD=
EXTT0=
EXTT1=
EXTT2=
EXTT3=
EXTT4=
EXTT5=
EXTT6=
EXTT7=
EXTT8=
EXTT9=
EXTT10=
EXTT11=
PLAYORDER=
